# xmcd CD database file
#
# Track frame offsets:
#	150
#	32745
#	63791
#	81397
#	100167
#	119342
#	149914
#	167947
#	190011
#	219975
#	251809
#	271357
#	285757
#	327805
#
# Disc length: 4750 seconds
#
# Revision: 0
# Processed by: cddbd v1.4PL0 Copyright (c) Steve Scherf et al.
# Submitted via: CDex 1.50Beta7
#
DISCID=cd128c0e
DTITLE=Gary Moore - Love Ballads
DYEAR=2002
DGENRE=Blues
TTITLE0=Picture of the Moon
TTITLE1=Stormy Monday
TTITLE2=Always Gonna Love You
TTITLE3=Still Got the Blues
TTITLE4=Empty Rooms
TTITLE5=Paristenne Walkways
TTITLE6=One Day
TTITLE7=Separate Ways
TTITLE8=Story of the Blues
TTITLE9=With Love (Remember)
TTITLE10=Jumpin at Shadows
TTITLE11=Johnny Boy
TTITLE12=Drowning in Years
TTITLE13=The Prophet
EXTD=YEAR: 2002
EXTT0=
EXTT1=
EXTT2=
EXTT3=
EXTT4=
EXTT5=
EXTT6=
EXTT7=
EXTT8=
EXTT9=
EXTT10=
EXTT11=
EXTT12=
EXTT13=
PLAYORDER=
